<?xml version="1.0" encoding="iso-8859-1"?>
<!-- Generator: Adobe Illustrator 19.0.0, SVG Export Plug-In . SVG Version: 6.00 Build 0)  -->
<svg fill="#1d809f" version="1.1" id="Capa_1" xmlns="http://www.w3.org/2000/svg" xmlns:xlink="http://www.w3.org/1999/xlink" x="0px" y="0px"
	 viewBox="0 0 416.402 416.402" style="enable-background:new 0 0 416.402 416.402;" xml:space="preserve">
<g>
	<g>
		<path d="M415.153,179.294c-0.116-2.1-1.102-4.057-2.72-5.4c-3.18-2.739-7.979-2.382-10.718,0.798
			c-0.001,0.001-0.001,0.001-0.002,0.002c-33.36,38.76-56.88,20-83-0.6c-19.76-15.68-40.84-32.36-68.56-32.36
			c-9.314-0.046-18.526,1.933-27,5.8c-5.495,2.507-10.558,5.868-15,9.96c-4.44-4.106-9.503-7.481-15-10
			c-8.474-3.867-17.686-5.846-27-5.8c-28,0-52.6,16.84-75.4,32.36c-7.56,5.16-14.88,10.2-21.84,14.2c-20,11.48-37.72,14.8-53.4-12
			c-1.935-3.7-6.503-5.13-10.203-3.195c-2.195,1.148-3.688,3.298-3.997,5.755c-2.019,13.286-1.708,26.821,0.92,40
			c3.032,15.54,11.657,29.43,24.24,39.04c12.297,8.768,26.658,14.198,41.68,15.76c22.584,2.354,45.405,0.839,67.48-4.48
			c16.54-3.373,32.523-9.055,47.48-16.88c9.314-4.945,17.77-11.361,25.04-19c7.271,7.638,15.726,14.054,25.04,19
			c14.93,7.832,30.886,13.528,47.4,16.92c22.103,5.315,44.951,6.817,67.56,4.44c15.046-1.537,29.435-6.953,41.76-15.72
			c12.583-9.61,21.208-23.5,24.24-39.04C416.767,205.824,417.106,192.44,415.153,179.294z M399.273,215.575
			c-2.307,11.988-8.923,22.717-18.6,30.16c-10.222,7.186-22.126,11.609-34.56,12.84c-20.852,2.117-41.913,0.67-62.28-4.28
			c-15.131-3.089-29.754-8.286-43.44-15.44c-10.257-5.214-19.17-12.73-26.04-21.96c-2.364-3.468-7.092-4.364-10.56-2
			c-0.786,0.536-1.464,1.214-2,2c-6.864,9.174-15.747,16.647-25.96,21.84c-13.687,7.153-28.309,12.351-43.44,15.44
			c-20.367,4.95-41.427,6.397-62.28,4.28c-12.434-1.23-24.339-5.653-34.56-12.84c-9.677-7.443-16.293-18.172-18.6-30.16
			c-1.046-4.828-1.649-9.742-1.8-14.68c18.68,18.64,39.04,13.28,61.28,0.48c7.44-4.32,15-9.44,22.76-14.76
			c20.96-14.24,43.68-29.6,66.96-29.6c7.128-0.063,14.184,1.425,20.68,4.36c6.012,2.704,11.281,6.821,15.36,12
			c2.54,3.314,7.286,3.941,10.599,1.401c0.526-0.403,0.997-0.874,1.401-1.401c4.057-5.168,9.298-9.283,15.28-12
			c6.496-2.935,13.552-4.423,20.68-4.36c22.48,0,41.36,14.96,59.12,29.04c29.04,23,55.44,44,92,11.16
			C401.288,203.309,400.617,209.507,399.273,215.575z"/>
	</g>
</g>
<g>
</g>
<g>
</g>
<g>
</g>
<g>
</g>
<g>
</g>
<g>
</g>
<g>
</g>
<g>
</g>
<g>
</g>
<g>
</g>
<g>
</g>
<g>
</g>
<g>
</g>
<g>
</g>
<g>
</g>
</svg>
